<svg xmlns="http://www.w3.org/2000/svg" viewBox="0 0 136 136" width="136" height="136">
  <defs>
    <linearGradient id="goldGrad" x1="0" y1="0" x2="136" y2="136" gradientUnits="userSpaceOnUse">
      <stop offset="0%" stop-color="#ffd700" />
      <stop offset="50%" stop-color="#f5deb3" />
      <stop offset="100%" stop-color="#daa520" />
    </linearGradient>
  </defs>
  <g transform="translate(8, 8) scale(1.2)">
    
    <path d="M61.1 24.1L61.6 30.1L61.4 46.6L55.3 47.9L53.7 46.3L53.2 40.3L53.4 23.7L59.5 22.5ZM24.7 32.4L24.9 19.9L25.9 18.4L28.9 18.3L30.5 18.4L32.2 19.1L32.8 20.8L33.1 31.5L33.1 51.6L33.4 62.9L34.2 65.3L35.9 67.6L38.5 69.7L43.4 71.1L50.6 71.9L55.7 71.9L58.7 71.1L61.3 70.0L63.5 68.5L65.3 66.6L66.7 64.3L67.5 52.4L67.8 31.0L68.5 19.8L69.6 18.8L71.3 18.3L75.0 18.7L76.1 20.7L76.3 33.1L75.8 56.5L75.0 69.4L73.7 71.9L71.4 74.3L68.0 76.7L62.8 78.9L55.7 80.8L48.3 81.1L40.7 79.7L34.9 77.8L31.0 75.4L28.1 72.7L26.2 69.9L25.1 56.4ZM38.9 46.3L38.5 40.3L38.8 24.0L44.7 22.5L46.3 24.1L46.8 30.1L46.6 46.6L40.5 47.9Z" fill="none" stroke="#222222" stroke-width="3" stroke-linejoin="miter" stroke-linecap="butt" />
    <path d="M61.1 24.1L61.6 30.1L61.4 46.6L55.3 47.9L53.7 46.3L53.2 40.3L53.4 23.7L59.5 22.5ZM24.7 32.4L24.9 19.9L25.9 18.4L28.9 18.3L30.5 18.4L32.2 19.1L32.8 20.8L33.1 31.5L33.1 51.6L33.4 62.9L34.2 65.3L35.9 67.6L38.5 69.7L43.4 71.1L50.6 71.9L55.7 71.9L58.7 71.1L61.3 70.0L63.5 68.5L65.3 66.6L66.7 64.3L67.5 52.4L67.8 31.0L68.5 19.8L69.6 18.8L71.3 18.3L75.0 18.7L76.1 20.7L76.3 33.1L75.8 56.5L75.0 69.4L73.7 71.9L71.4 74.3L68.0 76.7L62.8 78.9L55.7 80.8L48.3 81.1L40.7 79.7L34.9 77.8L31.0 75.4L28.1 72.7L26.2 69.9L25.1 56.4ZM38.9 46.3L38.5 40.3L38.8 24.0L44.7 22.5L46.3 24.1L46.8 30.1L46.6 46.6L40.5 47.9Z" fill="url(#goldGrad)" fill-rule="evenodd" />
  </g>
</svg>