<svg xmlns="http://www.w3.org/2000/svg" viewBox="0 0 136 136" width="136" height="136">
  <defs>
    <linearGradient id="goldGrad" x1="0" y1="0" x2="136" y2="136" gradientUnits="userSpaceOnUse">
      <stop offset="0%" stop-color="#ffd700" />
      <stop offset="50%" stop-color="#f5deb3" />
      <stop offset="100%" stop-color="#daa520" />
    </linearGradient>
  </defs>
  <g transform="translate(8, 8) scale(1.2)">
    
    <path d="M49.8 51.9L46.3 51.5L43.3 50.4L40.5 48.4L37.9 45.7L36.3 43.1L35.5 40.6L35.5 37.1L36.3 32.6L37.8 29.1L40.2 26.7L43.0 24.7L46.2 23.2L50.2 22.8L54.7 23.6L58.2 24.9L60.5 26.8L62.7 30.1L64.8 34.9L64.8 39.9L62.5 45.1L60.0 48.6L57.0 50.4L53.6 51.5ZM63.7 65.7L60.4 60.5L58.0 55.9L65.9 56.4L78.2 74.8L77.3 77.3L71.0 76.7ZM22.7 77.3L21.8 74.8L31.7 60.8L36.6 56.0L41.3 55.5L42.2 58.0L32.3 72.0L27.4 76.8Z" fill="none" stroke="#222222" stroke-width="3" stroke-linejoin="miter" stroke-linecap="butt" />
    <path d="M49.8 51.9L46.3 51.5L43.3 50.4L40.5 48.4L37.9 45.7L36.3 43.1L35.5 40.6L35.5 37.1L36.3 32.6L37.8 29.1L40.2 26.7L43.0 24.7L46.2 23.2L50.2 22.8L54.7 23.6L58.2 24.9L60.5 26.8L62.7 30.1L64.8 34.9L64.8 39.9L62.5 45.1L60.0 48.6L57.0 50.4L53.6 51.5ZM63.7 65.7L60.4 60.5L58.0 55.9L65.9 56.4L78.2 74.8L77.3 77.3L71.0 76.7ZM22.7 77.3L21.8 74.8L31.7 60.8L36.6 56.0L41.3 55.5L42.2 58.0L32.3 72.0L27.4 76.8Z" fill="url(#goldGrad)" fill-rule="evenodd" />
  </g>
</svg>