<svg xmlns="http://www.w3.org/2000/svg" viewBox="0 0 136 136" width="136" height="136">
  <defs>
    <linearGradient id="goldGrad" x1="0" y1="0" x2="136" y2="136" gradientUnits="userSpaceOnUse">
      <stop offset="0%" stop-color="#ffd700" />
      <stop offset="50%" stop-color="#f5deb3" />
      <stop offset="100%" stop-color="#daa520" />
    </linearGradient>
  </defs>
  <g transform="translate(8, 8) scale(1.2)">
    
    <path d="M37.0 55.0L50.3 41.8L65.2 27.1L74.1 19.6L77.1 19.4L79.2 19.5L80.9 20.1L80.9 21.3L75.3 27.3L63.9 38.8L57.3 45.3L55.2 47.0L54.1 48.5L53.8 50.4L75.2 51.3L76.2 52.7L76.3 54.3L75.8 57.8L52.2 58.8L41.3 62.1L32.4 71.2L33.7 72.0L44.2 72.2L64.3 72.2L74.9 72.8L76.5 74.4L75.0 80.3L18.9 80.1L17.9 76.9L18.1 75.0L19.0 73.3L25.3 66.6Z" fill="none" stroke="#222222" stroke-width="3" stroke-linejoin="miter" stroke-linecap="butt" />
    <path d="M37.0 55.0L50.3 41.8L65.2 27.1L74.1 19.6L77.1 19.4L79.2 19.5L80.9 20.1L80.9 21.3L75.3 27.3L63.9 38.8L57.3 45.3L55.2 47.0L54.1 48.5L53.8 50.4L75.2 51.3L76.2 52.7L76.3 54.3L75.8 57.8L52.2 58.8L41.3 62.1L32.4 71.2L33.7 72.0L44.2 72.2L64.3 72.2L74.9 72.8L76.5 74.4L75.0 80.3L18.9 80.1L17.9 76.9L18.1 75.0L19.0 73.3L25.3 66.6Z" fill="url(#goldGrad)" fill-rule="evenodd" />
  </g>
</svg>