<svg xmlns="http://www.w3.org/2000/svg" viewBox="0 0 100 100" width="100" height="100">
  <path d="M62.0 43.4L65.9 46.0L69.9 48.9L73.1 52.6L75.6 56.9L77.1 63.4L77.4 72.1L77.2 76.9L76.3 78.4L72.4 78.5L70.7 78.3L69.3 77.3L69.1 65.6L68.5 60.4L67.3 57.8L65.9 55.8L64.2 54.3L61.6 53.0L58.1 51.7L54.0 51.1L49.2 51.1L44.8 51.9L40.6 53.6L37.7 55.7L35.9 58.1L34.6 63.8L33.7 77.1L31.6 78.2L30.0 78.5L27.1 78.2L26.0 76.1L25.6 72.0L25.6 65.1L26.0 60.4L26.8 58.0L28.3 55.0L30.6 51.5L33.9 48.4L38.0 45.7L41.8 43.6L47.0 41.7L47.7 30.1L46.2 29.1L40.3 28.7L24.0 28.4L22.8 26.3L22.8 24.6L23.7 21.6L54.9 21.8L56.0 23.9L56.2 28.5L55.9 40.3Z" fill="#000000" />
</svg>